<svg width="16" height="19" viewBox="0 0 16 19" fill="none" xmlns="http://www.w3.org/2000/svg">
<path d="M4.9082 9.90723H10.4252" stroke="#0D0D0D" stroke-linecap="round" stroke-linejoin="round"/>
<path d="M4.9082 12.6655H10.4252" stroke="#0D0D0D" stroke-linecap="round" stroke-linejoin="round"/>
<path d="M1.46013 2.32129H13.8733C14.0562 2.32129 14.2316 2.39395 14.3609 2.52327C14.4903 2.6526 14.5629 2.82801 14.5629 3.01091V16.1137C14.5629 16.6624 14.345 17.1886 13.957 17.5766C13.569 17.9646 13.0428 18.1826 12.4941 18.1826H2.83937C2.29067 18.1826 1.76445 17.9646 1.37646 17.5766C0.988477 17.1886 0.770508 16.6624 0.770508 16.1137V3.01091C0.770508 2.82801 0.843164 2.6526 0.972493 2.52327C1.10182 2.39395 1.27723 2.32129 1.46013 2.32129V2.32129Z" stroke="#0D0D0D" stroke-linecap="round" stroke-linejoin="round"/>
<path d="M3.52832 0.942383V3.70087" stroke="#0D0D0D" stroke-linecap="round" stroke-linejoin="round"/>
<path d="M7.66602 0.942383V3.70087" stroke="#0D0D0D" stroke-linecap="round" stroke-linejoin="round"/>
<path d="M11.8037 0.942383V3.70087" stroke="#0D0D0D" stroke-linecap="round" stroke-linejoin="round"/>
</svg>
