<svg width="20.458984" height="25.996338" viewBox="0 0 20.459 25.9963" fill="none" xmlns="http://www.w3.org/2000/svg" xmlns:xlink="http://www.w3.org/1999/xlink">

	<defs/>
	<path id="Vector" d="M10.23 13.91C8.19 13.91 6.53 12.26 6.53 10.22C6.53 8.18 8.19 6.53 10.23 6.53C12.26 6.53 13.92 8.18 13.92 10.22C13.92 12.26 12.26 13.91 10.23 13.91Z" stroke="#181818" stroke-opacity="1.000000" stroke-width="2.000000" stroke-linejoin="round"/>
	<path id="Vector" d="M10.22 24.99C10.22 24.99 1 18.53 1 10.22C1 7.78 1.97 5.43 3.7 3.7C5.43 1.97 7.78 1 10.22 1C12.67 1 15.02 1.97 16.75 3.7C18.48 5.43 19.45 7.78 19.45 10.22C19.45 18.53 10.22 24.99 10.22 24.99Z" stroke="#181818" stroke-opacity="1.000000" stroke-width="2.000000" stroke-linejoin="round"/>
</svg>
