<svg width="17.000000" height="21.800293" viewBox="0 0 17 21.8003" fill="none" xmlns="http://www.w3.org/2000/svg" xmlns:xlink="http://www.w3.org/1999/xlink">

	<defs/>
	<path id="Vector" d="M8.49 11.7C6.73 11.7 5.29 10.26 5.29 8.5C5.29 6.73 6.73 5.3 8.49 5.3C10.26 5.3 11.69 6.73 11.69 8.5C11.69 10.26 10.26 11.7 8.49 11.7Z" stroke="#FFFFFF" stroke-opacity="1.000000" stroke-width="1.000000" stroke-linejoin="round"/>
	<path id="Vector" d="M8.5 21.3C8.5 21.3 0.5 15.7 0.5 8.5C0.5 6.37 1.34 4.34 2.84 2.84C4.34 1.34 6.37 0.5 8.5 0.5C10.62 0.5 12.65 1.34 14.15 2.84C15.65 4.34 16.5 6.37 16.5 8.5C16.5 15.7 8.5 21.3 8.5 21.3Z" stroke="#FFFFFF" stroke-opacity="1.000000" stroke-width="1.000000" stroke-linejoin="round"/>
</svg>
