<svg width="84.179688" height="48.925781" viewBox="0 0 84.1797 48.9258" fill="none" xmlns="http://www.w3.org/2000/svg" xmlns:xlink="http://www.w3.org/1999/xlink">
	<desc>
			Created with Pixso.
	</desc>
	<defs/>
	<path id="“" d="M84.17 0C82.94 5.27 81.67 10.8 80.37 16.6C79.13 22.39 77.99 28.09 76.95 33.69C75.91 39.22 75.03 44.3 74.31 48.92L46.97 48.92L45.6 46.77C46.77 42.02 48.27 36.97 50.09 31.64C51.98 26.23 54 20.83 56.15 15.42C58.36 9.96 60.57 4.81 62.79 0L84.17 0ZM38.57 0C37.33 5.27 36.06 10.8 34.76 16.6C33.52 22.39 32.38 28.09 31.34 33.69C30.3 39.22 29.42 44.3 28.71 48.92L1.36 48.92L0 46.77C1.17 42.02 2.66 36.97 4.49 31.64C6.38 26.23 8.39 20.83 10.54 15.42C12.76 9.96 14.97 4.81 17.18 0L38.57 0Z" fill="#FFCC4A" fill-opacity="1.000000" fill-rule="nonzero"/>
</svg>
