<svg width="25.154297" height="25.154297" viewBox="0 0 25.1543 25.1543" fill="none" xmlns="http://www.w3.org/2000/svg" xmlns:xlink="http://www.w3.org/1999/xlink">
	<desc>
			Created with Pixso.
	</desc>
	<defs/>
	<path id="Icon" d="M12.53 17.56C12.69 17.63 12.86 17.66 13.04 17.65C13.21 17.64 13.38 17.58 13.53 17.48L16.68 15.38C16.82 15.28 16.98 15.22 17.14 15.21C17.31 15.19 17.48 15.22 17.64 15.29L23.54 17.82C23.74 17.9 23.91 18.05 24.01 18.24C24.12 18.43 24.17 18.65 24.14 18.87C23.95 20.33 23.24 21.67 22.14 22.64C21.03 23.61 19.61 24.15 18.14 24.15C13.59 24.15 9.23 22.34 6.02 19.13C2.8 15.91 1 11.55 1 7C1 5.53 1.53 4.11 2.5 3.01C3.48 1.9 4.82 1.19 6.28 1C6.49 0.98 6.71 1.02 6.9 1.13C7.09 1.24 7.24 1.41 7.32 1.61L9.86 7.52C9.92 7.67 9.95 7.84 9.94 8C9.92 8.17 9.87 8.33 9.78 8.47L7.68 11.67C7.58 11.81 7.53 11.98 7.52 12.15C7.51 12.32 7.54 12.5 7.61 12.65C8.65 14.8 10.38 16.52 12.53 17.56Z" stroke="#DEAA27" stroke-opacity="1.000000" stroke-width="2.000000" stroke-linejoin="round"/>
</svg>
