<svg width="17.759766" height="17.760254" viewBox="0 0 17.7598 17.7603" fill="none" xmlns="http://www.w3.org/2000/svg" xmlns:xlink="http://www.w3.org/1999/xlink">
	<desc>
			Created with Pixso.
	</desc>
	<defs/>
	<path id="Icon" d="M8.84 12.48C8.96 12.54 9.09 12.56 9.21 12.55C9.34 12.54 9.46 12.5 9.57 12.43L11.85 10.9C11.95 10.84 12.06 10.79 12.19 10.78C12.31 10.77 12.43 10.79 12.54 10.84L16.81 12.67C16.96 12.74 17.08 12.84 17.16 12.98C17.24 13.12 17.27 13.28 17.25 13.43C17.11 14.49 16.6 15.46 15.8 16.16C15 16.87 13.97 17.26 12.91 17.26C9.61 17.26 6.46 15.95 4.13 13.62C1.8 11.29 0.5 8.14 0.5 4.85C0.5 3.78 0.88 2.75 1.59 1.95C2.29 1.15 3.26 0.64 4.32 0.5C4.48 0.48 4.63 0.51 4.77 0.59C4.91 0.67 5.01 0.79 5.08 0.94L6.91 5.22C6.96 5.33 6.98 5.45 6.97 5.57C6.96 5.69 6.92 5.8 6.86 5.9L5.33 8.22C5.26 8.33 5.22 8.45 5.22 8.57C5.21 8.7 5.23 8.82 5.29 8.93C6.04 10.48 7.29 11.74 8.84 12.48Z" stroke="#0D0D0D" stroke-opacity="1.000000" stroke-width="1.000000" stroke-linejoin="round"/>
</svg>
