<svg width="19" height="18" viewBox="0 0 19 18" fill="none" xmlns="http://www.w3.org/2000/svg">
<path d="M5.91254 9.19415C6.64287 10.7024 7.86243 11.9188 9.37251 12.6452C9.4839 12.698 9.6071 12.7208 9.72999 12.7115C9.85288 12.7022 9.97122 12.661 10.0734 12.592L12.2913 11.1104C12.3893 11.044 12.5025 11.0034 12.6204 10.9926C12.7383 10.9817 12.8571 11.0009 12.9656 11.0483L17.1175 12.8316C17.2594 12.8906 17.378 12.9947 17.4549 13.1277C17.5319 13.2608 17.5629 13.4155 17.5434 13.5679C17.4118 14.595 16.9104 15.539 16.1332 16.2232C15.3559 16.9074 14.3559 17.2849 13.3204 17.2852C10.1204 17.2852 7.05152 16.014 4.7888 13.7512C2.52607 11.4885 1.25488 8.4196 1.25488 5.21962C1.25512 4.18411 1.63265 3.18416 2.31685 2.40689C3.00105 1.62961 3.94502 1.12828 4.97213 0.996679C5.12458 0.977097 5.27924 1.00817 5.4123 1.08512C5.54535 1.16207 5.64942 1.28062 5.70849 1.42252L7.4917 5.58336C7.53807 5.69013 7.55747 5.80666 7.54819 5.9227C7.53891 6.03873 7.50123 6.1507 7.43847 6.24874L5.95689 8.50215C5.89093 8.60408 5.85222 8.72121 5.84445 8.84237C5.83669 8.96352 5.86013 9.08464 5.91254 9.19415Z" stroke="#37A437" stroke-linecap="round" stroke-linejoin="round"/>
</svg>
