<svg width="19.000977" height="19.000732" viewBox="0 0 19.001 19.0007" fill="none" xmlns="http://www.w3.org/2000/svg" xmlns:xlink="http://www.w3.org/1999/xlink">
	<desc>
			Created with Pixso.
	</desc>
	<defs/>
	<path id="Icon" d="M9.46 13.37C9.59 13.43 9.72 13.45 9.86 13.44C9.99 13.43 10.12 13.39 10.24 13.31L12.69 11.67C12.79 11.6 12.92 11.56 13.05 11.54C13.18 11.53 13.31 11.55 13.43 11.61L18.02 13.58C18.17 13.64 18.31 13.76 18.39 13.9C18.48 14.05 18.51 14.22 18.49 14.39C18.34 15.52 17.79 16.57 16.93 17.32C16.07 18.08 14.97 18.5 13.82 18.5C10.29 18.5 6.9 17.09 4.4 14.59C1.9 12.09 0.5 8.7 0.5 5.17C0.5 4.02 0.91 2.92 1.67 2.06C2.42 1.2 3.47 0.65 4.6 0.5C4.77 0.48 4.94 0.51 5.09 0.6C5.23 0.68 5.35 0.82 5.41 0.97L7.38 5.57C7.44 5.69 7.46 5.82 7.45 5.94C7.44 6.07 7.4 6.2 7.33 6.3L5.69 8.79C5.62 8.91 5.57 9.04 5.57 9.17C5.56 9.3 5.58 9.44 5.64 9.56C6.45 11.22 7.79 12.57 9.46 13.37Z" stroke="#FFFFFF" stroke-opacity="1.000000" stroke-width="1.000000" stroke-linejoin="round"/>
</svg>
