<svg width="20" height="28" viewBox="0 0 20 28" fill="none" xmlns="http://www.w3.org/2000/svg">
<path d="M9.82862 13.9961L1.79675 7.9722C1.66625 7.87306 1.56026 7.74527 1.48697 7.59868C1.41368 7.4521 1.37503 7.29063 1.37402 7.12674V2.37103C1.37402 2.09075 1.48537 1.82194 1.68356 1.62375C1.88175 1.42555 2.15056 1.31421 2.43085 1.31421H17.2264C17.5067 1.31421 17.7755 1.42555 17.9737 1.62375C18.1719 1.82194 18.2832 2.09075 18.2832 2.37103V7.0739C18.2822 7.23779 18.2436 7.39925 18.1703 7.54584C18.097 7.69243 17.991 7.82022 17.8605 7.91936L9.82862 13.9961Z" stroke="white" stroke-width="2" stroke-linecap="round" stroke-linejoin="round"/>
<path d="M9.82862 13.9961L1.79675 20.02C1.66625 20.1191 1.56026 20.2469 1.48697 20.3935C1.41368 20.5401 1.37503 20.7016 1.37402 20.8655V25.6212C1.37402 25.9015 1.48537 26.1703 1.68356 26.3685C1.88175 26.5666 2.15056 26.678 2.43085 26.678H17.2264C17.5067 26.678 17.7755 26.5666 17.9737 26.3685C18.1719 26.1703 18.2832 25.9015 18.2832 25.6212V20.9183C18.2822 20.7544 18.2436 20.5929 18.1703 20.4464C18.097 20.2998 17.991 20.172 17.8605 20.0728L9.82862 13.9961Z" stroke="white" stroke-width="2" stroke-linecap="round" stroke-linejoin="round"/>
</svg>
