<svg width="28" height="28" viewBox="0 0 28 28" fill="none" xmlns="http://www.w3.org/2000/svg">
<path d="M14.2518 26.4471C21.1326 26.4471 26.7106 20.8691 26.7106 13.9883C26.7106 7.10743 21.1326 1.52942 14.2518 1.52942C7.37098 1.52942 1.79297 7.10743 1.79297 13.9883C1.79297 20.8691 7.37098 26.4471 14.2518 26.4471Z" stroke="white" stroke-width="2" stroke-linecap="round" stroke-linejoin="round"/>
<path d="M4.07715 21.1781L5.59557 20.2566C5.74616 20.1637 5.87051 20.0339 5.95682 19.8794C6.04313 19.725 6.08854 19.5511 6.08873 19.3741L6.11469 14.6891C6.11676 14.4948 6.17538 14.3054 6.2834 14.144L8.85304 10.1079C8.93015 9.98861 9.03062 9.88622 9.14839 9.80687C9.26615 9.72752 9.39878 9.67286 9.53826 9.64617C9.67773 9.61949 9.82117 9.62134 9.95991 9.65162C10.0987 9.6819 10.2298 9.73998 10.3455 9.82234L12.8892 11.6652C13.1086 11.8182 13.3758 11.8873 13.6419 11.8599L17.73 11.3018C17.978 11.2677 18.2045 11.1428 18.3659 10.9514L21.247 7.62907C21.4178 7.42654 21.5059 7.16698 21.4936 6.9023L21.3508 3.74866" stroke="white" stroke-width="2" stroke-linecap="round" stroke-linejoin="round"/>
<path d="M21.9213 23.8126L20.5197 22.4109C20.39 22.2814 20.2291 22.1875 20.0525 22.1384L17.2622 21.4116C17.0171 21.3446 16.8052 21.19 16.6665 20.9771C16.5277 20.7642 16.4719 20.5079 16.5095 20.2566L16.808 18.1542C16.8376 17.9773 16.9114 17.8109 17.0226 17.6702C17.1338 17.5295 17.2787 17.4192 17.4439 17.3495L21.3892 15.7013C21.5724 15.6249 21.7737 15.6026 21.9693 15.6371C22.1648 15.6716 22.3463 15.7615 22.4923 15.896L25.7238 18.855" stroke="white" stroke-width="2" stroke-linecap="round" stroke-linejoin="round"/>
</svg>
