<svg width="181.290039" height="33.258301" viewBox="0 0 181.29 33.2583" fill="none" xmlns="http://www.w3.org/2000/svg" xmlns:xlink="http://www.w3.org/1999/xlink">
	<desc>
			Created with Pixso.
	</desc>
	<defs/>
	<path d="M26.55 22.39C28.06 22.39 29.29 21.16 29.29 19.65L29.29 3.99C29.29 2.48 28.06 1.26 26.55 1.26L2.73 1.26C1.22 1.26 0 2.48 0 3.99L0 19.65C0 21.16 1.22 22.39 2.73 22.39L13.88 22.39C13.89 22.39 13.89 22.39 13.89 22.4L20.96 29.46C21.53 30.04 22.51 29.63 22.51 28.82L22.51 22.39L26.55 22.39Z" fill="#FFCC4A" fill-opacity="1.000000" fill-rule="nonzero"/>
	<rect x="7.455078" y="14.695312" rx="0.763460" width="13.660265" height="1.526921" fill="#1B1B1B" fill-opacity="1.000000"/>
	<rect x="7.455078" y="10.757812" rx="0.763460" width="13.660265" height="1.526921" fill="#1B1B1B" fill-opacity="1.000000"/>
	<rect x="7.455078" y="7.226562" rx="0.763460" width="13.660265" height="1.526921" fill="#1B1B1B" fill-opacity="1.000000"/>
	<path d="M75.64 3.5L72.29 3.5L72.29 26L75.64 26L75.64 19.04L80.68 26L84.56 26L78.82 18.17L84.43 11.11L80.56 11.11L75.64 17.42L75.64 3.5ZM44.71 20.77L52.51 20.77L54.34 26L57.79 26L50.32 5L46.9 5L39.4 26L42.89 26L44.71 20.77ZM100.13 5L86.92 5L86.92 26L100.43 26L100.43 22.69L90.47 22.69L90.47 16.69L98.05 16.69L98.05 13.4L90.47 13.4L90.47 8.29L100.13 8.29L100.13 5ZM162.24 25.45Q163.22 26.3 164.93 26.3L167.51 26.3L167.81 23.56L166.91 23.56Q165.62 23.56 165.12 23.42Q164.87 23.34 164.71 23.18Q164.55 23.02 164.48 22.77Q164.33 22.27 164.33 20.96L164.33 13.81L167.84 13.81L167.84 11.11L164.33 11.11L164.33 7.33L160.97 7.69L160.97 11.11L159.02 11.11L158.72 13.81L160.97 13.81L160.97 22.52Q160.97 23.42 161.3 24.17Q161.55 24.72 161.97 25.19Q162.1 25.33 162.24 25.45ZM48.62 9.71L51.41 17.68L45.8 17.68L48.62 9.71ZM60.28 25.71Q62.01 26.3 63.94 26.3Q66.86 26.3 68.29 25.08Q68.89 24.58 69.24 23.94Q69.74 23.03 69.74 21.86Q69.74 20.45 69.06 19.54Q68.89 19.31 68.67 19.11Q67.61 18.14 65.59 17.38Q64.27 16.91 63.66 16.63Q63.04 16.36 62.71 15.98Q62.66 15.91 62.61 15.84Q62.38 15.49 62.38 14.99Q62.38 14.49 62.61 14.13Q62.75 13.91 62.98 13.74Q63.58 13.3 64.7 13.3Q65.71 13.3 66.59 13.63Q66.68 13.66 66.76 13.7Q67.72 14.09 68.71 14.8L69.05 11.9Q68.79 11.75 68.53 11.63Q66.77 10.81 64.63 10.81Q62 10.81 60.54 12.04Q59.83 12.64 59.47 13.41Q59.09 14.21 59.09 15.19Q59.09 16.64 59.79 17.55Q59.98 17.78 60.21 17.98Q61.34 18.94 63.53 19.7Q65.03 20.24 65.69 20.68Q65.93 20.85 66.08 21.07Q66.35 21.46 66.35 22.03Q66.35 22.49 66.14 22.82Q65.98 23.08 65.7 23.26Q65.06 23.66 63.83 23.66Q63.81 23.66 63.79 23.66Q61.49 23.65 59.2 22.16L58.88 25.12Q59.56 25.47 60.28 25.71ZM153.25 11.11L150.23 11.11L150.23 26L153.65 26L153.65 15.7Q154.01 15.07 154.87 14.61Q155.31 14.38 155.78 14.26Q156.24 14.14 156.73 14.14Q157.4 14.14 157.87 14.3L158.14 10.88Q157.79 10.81 157.49 10.81Q157.15 10.81 156.82 10.86Q156.03 10.99 155.3 11.41Q155.23 11.45 155.17 11.49Q154.2 12.07 153.44 13L153.25 11.11ZM170.77 25.71Q172.5 26.3 174.43 26.3Q177.35 26.3 178.78 25.08Q179.38 24.58 179.73 23.94Q180.23 23.03 180.23 21.86Q180.23 20.45 179.55 19.54Q179.38 19.31 179.16 19.11Q178.1 18.14 176.08 17.38Q174.76 16.91 174.15 16.63Q173.53 16.36 173.2 15.98Q173.15 15.91 173.1 15.84Q172.87 15.49 172.87 14.99Q172.87 14.49 173.1 14.13Q173.24 13.91 173.47 13.74Q174.08 13.3 175.19 13.3Q176.2 13.3 177.08 13.63Q177.17 13.66 177.25 13.7Q178.21 14.09 179.2 14.8L179.54 11.9Q179.28 11.75 179.02 11.63Q177.26 10.81 175.12 10.81Q172.49 10.81 171.03 12.04Q170.32 12.64 169.96 13.41Q169.58 14.21 169.58 15.19Q169.58 16.64 170.28 17.55Q170.47 17.78 170.7 17.98Q171.83 18.94 174.02 19.7Q175.52 20.24 176.18 20.68Q176.42 20.85 176.57 21.07Q176.84 21.46 176.84 22.03Q176.84 22.49 176.63 22.82Q176.47 23.08 176.19 23.26Q175.55 23.66 174.32 23.66Q174.3 23.66 174.28 23.66Q171.99 23.65 169.7 22.16L169.37 25.12Q170.05 25.47 170.77 25.71ZM128.67 11.62Q127.3 10.85 125.5 10.85Q124.04 10.85 122.91 11.33Q121.78 11.81 120.82 12.7L120.46 11.11L117.8 11.11L117.8 33.25L121.15 33.25L121.15 24.79Q121.82 25.42 122.61 25.77Q122.82 25.86 123.03 25.94Q124.07 26.3 125.5 26.3Q127.4 26.3 128.81 25.46Q128.96 25.38 129.11 25.28Q129.59 24.95 130 24.54Q130.85 23.68 131.37 22.49Q132.14 20.71 132.14 18.55Q132.14 16.39 131.36 14.64Q130.82 13.43 129.95 12.58Q129.55 12.19 129.08 11.87Q128.88 11.73 128.67 11.62ZM137.58 25.25Q139.39 26.3 141.98 26.3Q144 26.3 145.79 25.65Q146.39 25.44 146.96 25.15L146.72 22.36Q146.21 22.65 145.67 22.86Q144.11 23.48 142.31 23.48Q140.62 23.48 139.4 22.72Q139.19 22.59 138.99 22.43Q138.94 22.39 138.9 22.35Q137.65 21.29 137.39 19.07L147.41 19.07Q147.62 18.19 147.62 17.24Q147.62 15.37 146.85 13.94Q146.53 13.33 146.08 12.83Q145.47 12.15 144.63 11.68Q143.17 10.85 141.19 10.85Q139.06 10.85 137.45 11.77Q137.36 11.81 137.28 11.87Q136.39 12.41 135.73 13.16Q135.16 13.81 134.76 14.61Q134.69 14.74 134.63 14.88Q133.91 16.5 133.91 18.44Q133.91 20.32 134.59 21.9Q134.71 22.16 134.84 22.41Q135.18 23.06 135.63 23.61Q136.43 24.58 137.58 25.25ZM101.83 11.11L106.81 18.55L101.78 26L105.71 26L108.7 21.13L111.8 26L115.7 26L110.72 18.47L115.63 11.11L111.68 11.11L108.83 15.98L105.77 11.11L101.83 11.11ZM126.74 23.02Q125.97 23.48 124.94 23.48Q123.65 23.48 122.76 22.88Q122.34 22.6 122.01 22.19Q120.98 20.9 120.98 18.55Q120.98 16.25 122.01 14.96Q122.34 14.55 122.76 14.27Q123.65 13.67 124.94 13.67Q125.97 13.67 126.74 14.12Q127.28 14.44 127.69 14.99Q128.69 16.31 128.69 18.55Q128.69 20.83 127.69 22.16Q127.28 22.7 126.74 23.02ZM143.76 15.03Q144.2 15.78 144.2 16.79L137.5 16.79Q137.93 15.03 139.04 14.26Q139.9 13.67 141.17 13.67Q142.45 13.67 143.19 14.31Q143.32 14.43 143.44 14.57Q143.63 14.79 143.76 15.03Z" fill="#FFFFFF" fill-opacity="1.000000" fill-rule="evenodd"/>
</svg>
