<svg width="71.722656" height="51.867676" viewBox="0 0 71.7227 51.8677" fill="none" xmlns="http://www.w3.org/2000/svg" xmlns:xlink="http://www.w3.org/1999/xlink">

	<defs/>
	<path id="Vector" d="M35.86 39.35C29.41 39.35 24.18 34.12 24.18 27.68C24.18 21.23 29.41 16 35.86 16C42.3 16 47.53 21.23 47.53 27.68C47.53 34.12 42.3 39.35 35.86 39.35Z" stroke="#141414" stroke-opacity="1.000000" stroke-width="4.000000" stroke-linejoin="round"/>
	<path id="Vector" d="M55.7 20.67C58.42 20.67 61.1 21.3 63.54 22.52C65.97 23.73 68.08 25.5 69.71 27.68" stroke="#141414" stroke-opacity="1.000000" stroke-width="4.000000" stroke-linejoin="round" stroke-linecap="round"/>
	<path id="Vector" d="M2 27.68C3.63 25.5 5.75 23.73 8.18 22.52C10.61 21.3 13.29 20.67 16.01 20.67" stroke="#141414" stroke-opacity="1.000000" stroke-width="4.000000" stroke-linejoin="round" stroke-linecap="round"/>
	<path id="Vector" d="M19.05 49.86C20.58 46.71 22.97 44.05 25.95 42.2C28.92 40.34 32.35 39.36 35.86 39.36C39.36 39.36 42.79 40.34 45.77 42.2C48.74 44.05 51.13 46.71 52.67 49.86" stroke="#141414" stroke-opacity="1.000000" stroke-width="4.000000" stroke-linejoin="round" stroke-linecap="round"/>
	<path id="Vector" d="M16.01 20.67C14.24 20.67 12.5 20.17 11 19.22C9.51 18.28 8.31 16.92 7.55 15.32C6.8 13.71 6.51 11.93 6.74 10.17C6.96 8.41 7.67 6.75 8.8 5.39C9.93 4.02 11.43 3 13.11 2.45C14.8 1.9 16.6 1.85 18.32 2.29C20.04 2.73 21.59 3.65 22.81 4.94C24.02 6.23 24.84 7.84 25.17 9.58" stroke="#141414" stroke-opacity="1.000000" stroke-width="4.000000" stroke-linejoin="round" stroke-linecap="round"/>
	<path id="Vector" d="M46.54 9.58C46.87 7.84 47.69 6.23 48.9 4.94C50.12 3.65 51.67 2.73 53.39 2.29C55.11 1.85 56.91 1.9 58.6 2.45C60.29 3 61.78 4.02 62.91 5.39C64.04 6.75 64.76 8.41 64.98 10.17C65.2 11.93 64.91 13.71 64.16 15.32C63.4 16.92 62.21 18.28 60.71 19.22C59.21 20.17 57.47 20.67 55.7 20.67" stroke="#141414" stroke-opacity="1.000000" stroke-width="4.000000" stroke-linejoin="round" stroke-linecap="round"/>
</svg>
