<svg width="15" height="14" viewBox="0 0 15 14" fill="none" xmlns="http://www.w3.org/2000/svg">
<path d="M1.21071 4.89989H4.04071V13.9999H1.21071V4.89989ZM2.62071 0.379883C3.53071 0.379883 4.26071 1.10988 4.26071 2.01988C4.26071 2.91988 3.53071 3.65988 2.62071 3.65988C1.71071 3.65988 0.980713 2.91988 0.980713 2.01988C0.980713 1.10988 1.72071 0.379883 2.62071 0.379883Z" fill="white"/>
<path d="M5.81005 4.89993H8.52005V6.13992H8.56005C8.94005 5.41992 9.86005 4.66992 11.24 4.66992C14.1 4.66992 14.63 6.54992 14.63 8.99992V13.9899H11.8V9.56993C11.8 8.50993 11.78 7.15993 10.33 7.15993C8.86005 7.15993 8.63005 8.30992 8.63005 9.49992V13.9999H5.80005V4.89993H5.81005Z" fill="white"/>
</svg>
