<svg width="18" height="18" viewBox="0 0 18 18" fill="none" xmlns="http://www.w3.org/2000/svg">
<path d="M13.3904 3.09033C12.8304 3.09033 12.3904 3.54033 12.3904 4.10033C12.3904 4.66033 12.8404 5.11033 13.3904 5.11033C13.9504 5.11033 14.4004 4.66033 14.4004 4.10033C14.4004 3.54033 13.9504 3.09033 13.3904 3.09033Z" fill="white"/>
<path d="M8.92971 4.38037C6.59971 4.38037 4.70972 6.27037 4.70972 8.60037C4.70972 10.9304 6.59971 12.8204 8.92971 12.8204C11.2597 12.8204 13.1497 10.9304 13.1497 8.60037C13.1497 6.27037 11.2497 4.38037 8.92971 4.38037ZM8.92971 11.3104C7.43971 11.3104 6.22971 10.1004 6.22971 8.61037C6.22971 7.12037 7.43971 5.91037 8.92971 5.91037C10.4197 5.91037 11.6297 7.12037 11.6297 8.61037C11.6297 10.1004 10.4197 11.3104 8.92971 11.3104Z" fill="white"/>
<path d="M12.28 17.1703H5.43002C2.59002 17.1703 0.280029 14.8603 0.280029 12.0203V5.18027C0.280029 2.34027 2.59002 0.0302734 5.43002 0.0302734H12.27C15.11 0.0302734 17.42 2.34027 17.42 5.18027V12.0203C17.43 14.8603 15.12 17.1703 12.28 17.1703ZM5.43002 1.64027C3.48002 1.64027 1.89003 3.23027 1.89003 5.18027V12.0203C1.89003 13.9703 3.48002 15.5603 5.43002 15.5603H12.27C14.22 15.5603 15.81 13.9703 15.81 12.0203V5.18027C15.81 3.23027 14.22 1.64027 12.27 1.64027H5.43002Z" fill="white"/>
</svg>
