<svg width="17" height="14" viewBox="0 0 17 14" fill="none" xmlns="http://www.w3.org/2000/svg">
<path d="M16.1798 1.61011C15.6698 1.84011 15.1098 1.98011 14.5698 2.07011C14.8298 2.03011 15.2098 1.56011 15.3598 1.37011C15.5898 1.08011 15.7898 0.750107 15.8998 0.390107C15.9098 0.360107 15.9198 0.330106 15.8998 0.310106C15.8598 0.300106 15.8398 0.300106 15.8098 0.320106C15.1998 0.650106 14.5698 0.880107 13.8998 1.05011C13.8398 1.06011 13.7998 1.05011 13.7698 1.02011C13.7098 0.960107 13.6598 0.900107 13.5998 0.850107C13.3198 0.610107 13.0198 0.420107 12.6698 0.280107C12.2198 0.100107 11.7298 0.0201073 11.2498 0.0501073C10.7798 0.0801073 10.3198 0.210106 9.89981 0.430106C9.47981 0.650106 9.1098 0.950106 8.8098 1.32011C8.4998 1.70011 8.2798 2.15011 8.1598 2.62011C8.0498 3.08011 8.0598 3.53011 8.1298 3.99011C8.1398 4.07011 8.1298 4.08011 8.0598 4.07011C5.4298 3.68011 3.2598 2.74011 1.4898 0.730106C1.4098 0.640106 1.3698 0.640106 1.3098 0.740106C0.539803 1.90011 0.909803 3.76011 1.8798 4.68011C2.0098 4.80011 2.1398 4.92011 2.2798 5.04011C2.2298 5.05011 1.58981 4.98011 1.00981 4.68011C0.929808 4.63011 0.889805 4.66011 0.889805 4.75011C0.879805 4.88011 0.889802 4.99011 0.909801 5.13011C1.0598 6.30011 1.8698 7.39011 2.9898 7.82011C3.1198 7.88011 3.2698 7.9201 3.4098 7.95011C3.1598 8.01011 2.8898 8.05011 2.1698 7.99011C2.0798 7.97011 2.03981 8.02011 2.07981 8.10011C2.62981 9.59011 3.8098 10.0401 4.6898 10.2901C4.8098 10.3101 4.9298 10.3101 5.0498 10.3401C5.0398 10.3501 5.0398 10.3501 5.0298 10.3601C4.7398 10.8101 3.71981 11.1401 3.24981 11.3101C2.38981 11.6101 1.44981 11.7501 0.539806 11.6601C0.389806 11.6401 0.359805 11.6401 0.319805 11.6601C0.279805 11.6801 0.309806 11.7201 0.359806 11.7601C0.539806 11.8801 0.729804 11.9901 0.919804 12.0901C1.4998 12.4001 2.0998 12.6401 2.7298 12.8101C5.9898 13.7101 9.6498 13.0501 12.0998 10.6201C14.0198 8.71011 14.6898 6.08011 14.6898 3.45011C14.6898 3.35011 14.8098 3.29011 14.8798 3.24011C15.3798 2.86011 15.7798 2.42011 16.1498 1.91011C16.2298 1.80011 16.2298 1.70011 16.2298 1.66011C16.2298 1.65011 16.2298 1.65011 16.2298 1.65011C16.2498 1.57011 16.2498 1.58011 16.1798 1.61011Z" fill="white"/>
</svg>
