<svg width="182.739258" height="33.258301" viewBox="0 0 182.739 33.2583" fill="none" xmlns="http://www.w3.org/2000/svg" xmlns:xlink="http://www.w3.org/1999/xlink">
	<desc>
			Created with Pixso.
	</desc>
	<defs/>
	<path id="Union" d="M26.96 22.49C28.49 22.49 29.73 21.25 29.73 19.72L29.73 3.82C29.73 2.28 28.49 1.04 26.96 1.04L2.77 1.04C1.24 1.04 0 2.28 0 3.82L0 19.72C0 21.25 1.24 22.49 2.77 22.49L14.1 22.49C14.1 22.5 14.1 22.5 14.11 22.5L21.28 29.68C21.86 30.26 22.86 29.85 22.86 29.02L22.86 22.49L26.96 22.49Z" fill="#FFCC4A" fill-opacity="1.000000" fill-rule="nonzero"/>
	<rect id="Rectangle 15" x="7.569336" y="14.680176" rx="0.775175" width="13.869875" height="1.550351" fill="#1B1B1B" fill-opacity="1.000000"/>
	<rect id="Rectangle 16" x="7.569336" y="10.686035" rx="0.775175" width="13.869875" height="1.550351" fill="#1B1B1B" fill-opacity="1.000000"/>
	<rect id="Rectangle 17" x="7.569336" y="7.105469" rx="0.775175" width="13.869875" height="1.550351" fill="#1B1B1B" fill-opacity="1.000000"/>
	<path id="AskExperts" d="M77.09 3.5L73.74 3.5L73.74 26L77.09 26L77.09 19.04L82.13 26L86.01 26L80.27 18.17L85.88 11.11L82.01 11.11L77.09 17.42L77.09 3.5ZM46.16 20.77L53.96 20.77L55.79 26L59.24 26L51.77 5L48.35 5L40.85 26L44.34 26L46.16 20.77ZM101.58 5L88.37 5L88.37 26L101.88 26L101.88 22.69L91.92 22.69L91.92 16.69L99.5 16.69L99.5 13.4L91.92 13.4L91.92 8.29L101.58 8.29L101.58 5ZM163.69 25.45Q164.67 26.3 166.38 26.3L168.96 26.3L169.26 23.56L168.36 23.56Q167.07 23.56 166.57 23.42Q166.32 23.34 166.16 23.18Q166 23.02 165.92 22.77Q165.78 22.27 165.78 20.96L165.78 13.81L169.29 13.81L169.29 11.11L165.78 11.11L165.78 7.33L162.42 7.69L162.42 11.11L160.47 11.11L160.17 13.81L162.42 13.81L162.42 22.52Q162.42 23.42 162.75 24.17Q163 24.72 163.42 25.19Q163.55 25.33 163.69 25.45ZM50.07 9.71L52.86 17.68L47.25 17.68L50.07 9.71ZM61.73 25.71Q63.46 26.3 65.39 26.3Q68.31 26.3 69.74 25.08Q70.34 24.58 70.69 23.94Q71.19 23.03 71.19 21.86Q71.19 20.45 70.51 19.54Q70.34 19.31 70.12 19.11Q69.05 18.14 67.04 17.38Q65.72 16.91 65.11 16.63Q64.49 16.36 64.16 15.98Q64.11 15.91 64.06 15.84Q63.83 15.49 63.83 14.99Q63.83 14.49 64.06 14.13Q64.2 13.91 64.43 13.74Q65.03 13.3 66.15 13.3Q67.15 13.3 68.04 13.63Q68.13 13.66 68.21 13.7Q69.17 14.09 70.16 14.8L70.5 11.9Q70.24 11.75 69.98 11.63Q68.22 10.81 66.08 10.81Q63.44 10.81 61.99 12.04Q61.28 12.64 60.92 13.41Q60.54 14.21 60.54 15.19Q60.54 16.64 61.24 17.55Q61.42 17.78 61.66 17.98Q62.79 18.94 64.98 19.7Q66.48 20.24 67.14 20.68Q67.37 20.85 67.53 21.07Q67.8 21.46 67.8 22.03Q67.8 22.49 67.59 22.82Q67.43 23.08 67.15 23.26Q66.51 23.66 65.28 23.66Q65.26 23.66 65.24 23.66Q62.94 23.65 60.65 22.16L60.32 25.12Q61.01 25.47 61.73 25.71ZM154.7 11.11L151.68 11.11L151.68 26L155.1 26L155.1 15.7Q155.46 15.07 156.32 14.61Q156.76 14.38 157.23 14.26Q157.69 14.14 158.18 14.14Q158.85 14.14 159.32 14.3L159.59 10.88Q159.24 10.81 158.94 10.81Q158.6 10.81 158.27 10.86Q157.48 10.99 156.75 11.41Q156.68 11.45 156.62 11.49Q155.65 12.07 154.89 13L154.7 11.11ZM172.22 25.71Q173.95 26.3 175.88 26.3Q178.8 26.3 180.23 25.08Q180.83 24.58 181.18 23.94Q181.68 23.03 181.68 21.86Q181.68 20.45 181 19.54Q180.83 19.31 180.61 19.11Q179.55 18.14 177.53 17.38Q176.21 16.91 175.6 16.63Q174.98 16.36 174.65 15.98Q174.6 15.91 174.55 15.84Q174.32 15.49 174.32 14.99Q174.32 14.49 174.55 14.13Q174.69 13.91 174.92 13.74Q175.52 13.3 176.64 13.3Q177.64 13.3 178.53 13.63Q178.62 13.66 178.7 13.7Q179.66 14.09 180.65 14.8L180.99 11.9Q180.73 11.75 180.47 11.63Q178.71 10.81 176.57 10.81Q173.94 10.81 172.48 12.04Q171.77 12.64 171.41 13.41Q171.03 14.21 171.03 15.19Q171.03 16.64 171.73 17.55Q171.91 17.78 172.15 17.98Q173.28 18.94 175.47 19.7Q176.97 20.24 177.63 20.68Q177.86 20.85 178.02 21.07Q178.29 21.46 178.29 22.03Q178.29 22.49 178.08 22.82Q177.92 23.08 177.64 23.26Q177 23.66 175.77 23.66Q175.75 23.66 175.73 23.66Q173.43 23.65 171.14 22.16L170.81 25.12Q171.5 25.47 172.22 25.71ZM130.12 11.62Q128.75 10.85 126.95 10.85Q125.49 10.85 124.36 11.33Q123.23 11.81 122.27 12.7L121.91 11.11L119.25 11.11L119.25 33.25L122.6 33.25L122.6 24.79Q123.27 25.42 124.06 25.77Q124.27 25.86 124.48 25.94Q125.52 26.3 126.95 26.3Q128.85 26.3 130.26 25.46Q130.41 25.38 130.56 25.28Q131.04 24.95 131.45 24.54Q132.3 23.68 132.82 22.49Q133.59 20.71 133.59 18.55Q133.59 16.39 132.8 14.64Q132.27 13.43 131.39 12.58Q131 12.19 130.53 11.87Q130.33 11.73 130.12 11.62ZM139.03 25.25Q140.84 26.3 143.43 26.3Q145.45 26.3 147.24 25.65Q147.84 25.44 148.41 25.15L148.17 22.36Q147.66 22.65 147.12 22.86Q145.56 23.48 143.76 23.48Q142.07 23.48 140.85 22.72Q140.64 22.59 140.44 22.43Q140.39 22.39 140.35 22.35Q139.1 21.29 138.84 19.07L148.85 19.07Q149.07 18.19 149.07 17.24Q149.07 15.37 148.3 13.94Q147.98 13.33 147.53 12.83Q146.92 12.15 146.08 11.68Q144.62 10.85 142.64 10.85Q140.51 10.85 138.9 11.77Q138.81 11.81 138.73 11.87Q137.84 12.41 137.18 13.16Q136.61 13.81 136.21 14.61Q136.14 14.74 136.08 14.88Q135.36 16.5 135.36 18.44Q135.36 20.32 136.04 21.9Q136.15 22.16 136.29 22.41Q136.63 23.06 137.08 23.61Q137.88 24.58 139.03 25.25ZM103.28 11.11L108.26 18.55L103.23 26L107.16 26L110.15 21.13L113.24 26L117.15 26L112.17 18.47L117.08 11.11L113.13 11.11L110.28 15.98L107.22 11.11L103.28 11.11ZM128.19 23.02Q127.42 23.48 126.39 23.48Q125.1 23.48 124.21 22.88Q123.79 22.6 123.46 22.19Q122.43 20.9 122.43 18.55Q122.43 16.25 123.46 14.96Q123.79 14.55 124.21 14.27Q125.1 13.67 126.39 13.67Q127.42 13.67 128.19 14.12Q128.73 14.44 129.14 14.99Q130.14 16.31 130.14 18.55Q130.14 20.83 129.14 22.16Q128.73 22.7 128.19 23.02ZM145.21 15.03Q145.65 15.78 145.65 16.79L138.95 16.79Q139.38 15.03 140.49 14.26Q141.35 13.67 142.61 13.67Q143.9 13.67 144.64 14.31Q144.77 14.43 144.89 14.57Q145.08 14.79 145.21 15.03Z" fill="#262626" fill-opacity="1.000000" fill-rule="evenodd"/>
</svg>
